# xmcd
#
# Track frame offsets:
#	150
#	22050
#	38807
#	61527
#	81450
#	105560
#	136457
#	156575
#	173792
#	191547
#
# Disc length: 2848 seconds
#
# Revision: 6
# Processed by: cddbd v1.5.2PL0 Copyright (c) Steve Scherf et al.
# Submitted via: audiograbber 1.83.01
#
DISCID=830b1e0a
DTITLE=Herbert Grönemeyer - Chaos
DYEAR=1993
DGENRE=Rock
TTITLE0=Chaos
TTITLE1=Die Härte
TTITLE2=Land unter
TTITLE3=Fisch im Netz
TTITLE4=Keine Garantie
TTITLE5=Grönland
TTITLE6=Ich geb' nichts mehr
TTITLE7=Morgenrot
TTITLE8=Kein Verlust
TTITLE9=Die Welle
EXTD=
EXTT0=
EXTT1=
EXTT2=
EXTT3=
EXTT4=
EXTT5=
EXTT6=
EXTT7=
EXTT8=
EXTT9=
PLAYORDER=
